<svg xmlns="http://www.w3.org/2000/svg" viewBox="0 0 220 160" fill="none" role="img" aria-labelledby="title desc">
	<title id="title">Mapa Polski</title>
	<desc id="desc">Dokładny obrys Polski z punktem w rejonie Dąbrowy Tarnowskiej. Kontur na podstawie danych Natural Earth.</desc>
	<path d="M174.1 33.9L174.7 44.3L178.7 53.1L178.6 62.4L170.0 67.2L174.4 78.0L174.7 88.4L182.0 108.8L180.4 115.4L173.2 118.1L160.1 137.5L163.8 148.0L160.7 146.6L146.9 137.7L136.5 141.0L129.7 138.6L121.2 143.6L113.9 135.3L107.9 138.5L107.1 137.1L100.5 125.6L89.7 124.1L88.3 116.8L78.4 114.2L76.3 120.3L68.4 115.4L69.3 109.0L58.5 107.0L51.7 99.4L45.7 84.5L46.9 76.5L43.3 64.0L38.0 55.7L42.1 49.4L38.7 37.6L48.6 30.7L71.1 19.9L89.3 12.0L103.8 15.9L104.9 21.6L118.8 21.9L136.6 24.6L163.2 24.2L170.6 26.7L174.1 33.9Z" fill="#ff6a00" fill-opacity=".055" stroke="#ff6a00" stroke-width="2.4" stroke-linecap="round" stroke-linejoin="round"/>
	<circle cx="138.0" cy="121.2" r="13" fill="#ff6a00" fill-opacity=".15"/>
	<path d="M138.0 109.2a8.5 8.5 0 0 0-8.5 8.5c0 7.5 8.5 17 8.5 17s8.5-9.5 8.5-17a8.5 8.5 0 0 0-8.5-8.5Z" fill="#ff6a00"/>
	<circle cx="138.0" cy="117.7" r="3.2" fill="#0d141b"/>
</svg>
